# AST/ASF file generated using VICON BodyLanguage
# -----------------------------------------------
:version 1.10
:name VICON
:units
  mass 1.0
  length 0.45
  angle deg
:documentation
   .ast/.asf automatically generated from VICON data using
   VICON BodyBuilder and BodyLanguage model FoxedUp or BRILLIANT.MOD
:root
   order TX TY TZ RX RY RZ
   axis XYZ
   position 0 0 0  
   orientation 0 0 0 
:bonedata
  begin
     id 1 
     name lhipjoint
     direction 0.645422 -0.672597 0.361999 
     length 2.39934 
     axis 0 0 0  XYZ
  end
  begin
     id 2 
     name lfemur
     direction 0.34202 -0.939693 0  
     length 6.58112  
     axis 0 0 20  XYZ
    dof rx ry rz
    limits (-160.0 20.0)
           (-70.0 70.0)
           (-60.0 70.0)
  end
  begin
     id 3 
     name ltibia
     direction 0.34202 -0.939693 0   
     length 7.02673   
     axis 0 0 20   XYZ
    dof rx
    limits (-10.0 170.0)
  end
  begin
     id 4 
     name lfoot
     direction 0.0835106 -0.229444 0.969733   
     length 2.08772   
     axis -90 7.62852e-016 20   XYZ
    dof rx rz
    limits (-45.0 90.0)
           (-70.0 20.0)
  end
  begin
     id 5 
     name ltoes
     direction 1.5358e-011 -4.21925e-011 1   
     length 1.04844   
     axis -90 7.62852e-016 20   XYZ
    dof rx
    limits (-90.0 20.0)
  end
  begin
     id 6 
     name rhipjoint
     direction -0.644959 -0.672941 0.362185   
     length 2.39812  
     axis 0 0 0  XYZ 
  end
  begin
     id 7 
     name rfemur
     direction -0.34202 -0.939693 0   
     length 6.67015   
     axis 0 0 -20   XYZ
    dof rx ry rz
    limits (-160.0 20.0)
           (-70.0 70.0)
           (-70.0 60.0)
  end
  begin
     id 8 
     name rtibia
     direction -0.34202 -0.939693 0   
     length 7.35735   
     axis 0 0 -20   XYZ
    dof rx
    limits (-10.0 170.0)
 end
 begin
     id 9 
     name rfoot
     direction -0.0670769 -0.184292 0.98058   
     length 2.25469  
     axis -90 -7.62852e-016 -20   XYZ
    dof rx rz
    limits (-45.0 90.0)
           (-20.0 70.0)
  end
  begin
     id 10 
     name rtoes
     direction -1.53575e-011 -4.21908e-011 1   
     length 1.13399   
     axis -90 -7.62852e-016 -20   XYZ
    dof rx
    limits (-90.0 20.0)
  end
  begin
     id 11 
     name lowerback
     direction -0.0188328 0.993434 -0.112847   
     length 2.27656   
     axis 0 0 0   XYZ
    dof rx ry rz
    limits (-20.0 45.0)
           (-30.0 30.0)
           (-30.0 30.0)
  end
  begin
     id 12 
     name upperback
     direction 0.00983139 0.998968 -0.04435   
     length 2.28631   
     axis 0 0 0   XYZ
    dof rx ry rz
    limits (-20.0 45.0)
           (-30.0 30.0)
           (-30.0 30.0)
  end
  begin
     id 13 
     name thorax
     direction 0.0177718 0.999807 0.00833073   
     length 2.30999   
     axis 0 0 0   XYZ
    dof rx ry rz
    limits (-20.0 45.0)
           (-30.0 30.0)
           (-30.0 30.0)
  end
  begin
     id 14 
     name lowerneck
     direction -0.0835025 0.993181 0.0813558   
     length 1.39447   
     axis 0 0 0   XYZ
    dof rx ry rz
    limits (-20.0 45.0)
           (-30.0 30.0)
           (-30.0 30.0)
  end
  begin
     id 15 
     name upperneck
     direction 0.210059 0.976535 0.0474817   
     length 1.39882   
     axis 0 0 0   XYZ
    dof rx ry rz
    limits (-20.0 45.0)
           (-30.0 30.0)
           (-30.0 30.0)
  end
  begin
     id 16
     name head
     direction 0.0780891 0.996944 -0.00207154  
     length 1.41828  
     axis 0 0 0   XYZ
    dof rx ry rz
    limits (-20.0 45.0)
           (-30.0 30.0)
           (-30.0 30.0)
  end
  begin
     id 17 
     name lclavicle
     direction 0.982414 0.166355 -0.0847829  
     length 3.57922  
     axis 0 0 0   XYZ
    dof ry rz
    limits (-20.0 10.0)
           (0.0 20.0)
  end
  begin
     id 18 
     name lhumerus
     direction 1 -4.48975e-011 5.47647e-028   
     length 4.76405   
     axis -180 -30 -90   XYZ
    dof rx ry rz
    limits (-60.0 90.0)
           (-90.0 90.0)
           (-90.0 90.0)
  end
  begin
     id 19
     name lradius
     direction 1 -4.48949e-011 -8.32142e-027   
     length 3.13759   
     axis -180 -30 -90   XYZ
    dof rx
    limits (-10.0 170.0)
  end
  begin
     id 20
     name lwrist
     direction 1 -4.48978e-011 -1.32705e-026   
     length 1.56879   
     axis 9.60836e-015 90 90   XYZ
    dof ry
    limits (-180.0 0.0)
 end
  begin
     id 21 
     name lhand
     direction 1 -4.48975e-011 -2.65409e-026   
     length 0.732262   
     axis 1.69354e-014 90 90   XYZ
    dof rx rz
    limits (-90.0 90.0)
           (-45.0 45.0)
  end
  begin
     id 22 
     name lfingers
     direction 1 -4.48923e-011 -5.30819e-026   
     length 0.590368   
     axis 3.38708e-014 90 90   XYZ
    dof rx
    limits (0.0 90.0)
  end
  begin
     id 23
     name lthumb
     direction 0.707107 -6.34914e-011 0.707107   
     length 0.847654   
     axis -90 45 2.85299e-015   XYZ
    dof rx rz
    limits (-45.0 45.0)
           (-45.0 45.0)
  end
  begin
     id 24 
     name rclavicle
     direction -0.963658 0.245183 -0.106063   
     length 3.43472  
     axis 0 0 0   XYZ 
    dof ry rz
    limits (-10.0 20.0)
           (-20.0 0.0)
  end
  begin
     id 25 
     name rhumerus
     direction -1 -4.48963e-011 -1.64784e-027  
     length 5.10161   
     axis -180 30 90   XYZ
    dof rx ry rz
    limits (-90.0 60.0)
           (-90.0 90.0)
           (-90.0 90.0)
  end
  begin
     id 26 
     name rradius
     direction -1 -4.48969e-011 -2.87943e-027   
     length 3.23267   
     axis -180 30 90   XYZ
    dof rx
    limits (-10.0 170.0)
  end
  begin
     id 27 
     name rwrist
     direction -1 -4.48982e-011 -1.32705e-026   
     length 1.61633   
     axis 9.60836e-015 -90 -90   XYZ
    dof ry
    limits (-180.0 0.0)
  end
  begin
     id 28
     name rhand
     direction -1 -4.48963e-011 -2.65409e-026   
     length 0.702   
     axis 1.69354e-014 -90 -90   XYZ
    dof rx rz
    limits (-90.0 90.0)
           (-45.0 45.0)
  end
  begin
     id 29
     name rfingers
     direction -1 -4.48934e-011 -5.30819e-026   
     length 0.565971   
     axis 3.38708e-014 -90 -90   XYZ
    dof rx
    limits (0.0 90.0)
  end
  begin
     id 30
     name rthumb
     direction -0.707107 -6.34908e-011 0.707107   
     length 0.812624   
     axis -90 -45 -2.85299e-015   XYZ
    dof rx rz
    limits (-45.0 45.0)
           (-45.0 45.0)
  end
:hierarchy
  begin
    root lhipjoint rhipjoint lowerback
    lhipjoint lfemur
    lfemur ltibia
    ltibia lfoot
    lfoot ltoes
    rhipjoint rfemur
    rfemur rtibia
    rtibia rfoot
    rfoot rtoes
    lowerback upperback
    upperback thorax
    thorax lowerneck lclavicle rclavicle
    lowerneck upperneck
    upperneck head
    lclavicle lhumerus
    lhumerus lradius
    lradius lwrist
    lwrist lhand lthumb
    lhand lfingers
    rclavicle rhumerus
    rhumerus rradius
    rradius rwrist
    rwrist rhand rthumb
    rhand rfingers
  end

#!OML:ASF \\sashay\E\basketball\basketball\Project 1\Capture day 1\Session 1\Subject.ASF
:FULLY-SPECIFIED
:DEGREES
49
root 6.23077 16.2859 -0.202791 104.691 79.3793 98.3564
lowerback 9.50389 -4.39313 -11.3641
upperback 5.70984 -6.43484 0.209366
thorax 2.05165 -3.47122 6.98031
lowerneck -9.93355 -2.83357 -14.0658
upperneck -11.032 -1.13306 16.9334
head -1.29469 -0.056535 7.60165
rclavicle 1.11319e-014 -1.11319e-014
rhumerus -80.7458 10.5625 -93.7959
rradius 99.5697
rwrist -19.0929
rhand -39.3351 52.5464
rfingers 7.12502
rthumb -12.3268 22.9298
lclavicle 1.11319e-014 -1.11319e-014
lhumerus -48.2407 -8.31941 101.187
lradius 94.9667
lwrist 21.8587
lhand -38.8315 28.2928
lfingers 7.12502
lthumb -11.8412 57.938
rfemur -41.0871 -4.24241 14.1355
rtibia 29.1952
rfoot -3.49281 0.0945107
rtoes -39.8834
lfemur 19.2563 8.29621 -26.5394
ltibia 71.8647
lfoot 5.90003 10.655
ltoes -24.9175
50
root 6.88945 16.2108 -0.2147 102.249 79.8279 96.6287
lowerback 9.68302 -3.92157 -10.5846
upperback 6.23714 -5.71387 0.196504
thorax 2.27534 -3.10836 6.50229
lowerneck -10.1039 -3.05688 -14.0193
upperneck -11.5175 -1.35323 16.811
head -1.37668 -0.150648 7.55389
rclavicle -1.45113e-014 -2.50469e-014
rhumerus -77.4873 9.30342 -94.2532
rradius 99.4264
rwrist -18.6482
rhand -39.0723 51.8407
rfingers 7.12502
rthumb -12.0734 22.209
lclavicle -1.45113e-014 -2.50469e-014
lhumerus -49.1261 -8.13329 101.259
lradius 90.6416
lwrist 24.0959
lhand -37.87 28.7319
lfingers 7.12502
lthumb -10.9139 58.4282
rfemur -38.9019 -4.67219 15.1254
rtibia 30.0808
rfoot -2.83691 0.351418
rtoes -41.7226
lfemur 17.4907 9.69619 -24.833
ltibia 78.4873
lfoot 4.86261 11.2404
ltoes -21.8492
51
root 7.54128 16.1266 -0.227311 100.802 80.322 95.6797
lowerback 9.79139 -3.50415 -9.56465
upperback 6.61756 -5.05622 0.146633
thorax 2.37863 -2.75402 5.8506
lowerneck -10.0493 -3.43054 -14.1016
upperneck -12.0912 -1.77332 16.935
head -1.47954 -0.352418 7.60656
rclavicle 4.39314e-014 -3.93594e-014
rhumerus -74.2215 8.20059 -94.9928
rradius 99.2233
rwrist -18.2511
rhand -38.6516 51.5357
rfingers 7.12502
rthumb -11.6677 21.8806
lclavicle 4.39314e-014 -3.93594e-014
lhumerus -50.1519 -8.32962 101.198
lradius 86.1938
lwrist 25.4007
lhand -37.1883 29.6028
lfingers 7.12502
lthumb -10.2563 59.3327
rfemur -36.9618 -4.83138 15.8492
rtibia 31.4604
rfoot -1.99963 0.984594
rtoes -41.0826
lfemur 15.3469 10.9264 -22.9625
ltibia 84.9766
lfoot 4.44366 11.3077
ltoes -18.0677
52
root 8.19674 16.0363 -0.239536 100.468 80.748 95.8541
lowerback 10.1881 -3.10964 -8.72051
upperback 6.75385 -4.49318 0.254617
thorax 2.13385 -2.43501 5.4918
lowerneck -9.79187 -3.71502 -14.3397
upperneck -12.5673 -2.11397 16.9334
head -1.60192 -0.519032 7.64779
rclavicle 3.04141e-014 1.31198e-014
rhumerus -71.1853 7.5834 -95.6495
rradius 98.9649
rwrist -17.9805
rhand -38.2433 51.5045
rfingers 7.12502
rthumb -11.2739 21.8275
lclavicle 3.04141e-014 1.31198e-014
lhumerus -51.5673 -8.64827 101.427
lradius 81.8259
lwrist 25.7908
lhand -36.7044 31.5421
lfingers 7.12502
lthumb -9.78942 61.2945
rfemur -35.1093 -5.01013 16.3329
rtibia 33.4188
rfoot -1.43407 2.02318
rtoes -40.3929
lfemur 13.077 12.0142 -20.9595
ltibia 91.2012
lfoot 4.62574 10.5881
ltoes -15.9397
53
root 8.83987 15.9415 -0.246767 102.075 81.13 97.8897
lowerback 10.767 -2.74808 -8.15895
upperback 6.78689 -4.0134 0.631771
thorax 1.75591 -2.16752 5.58341
lowerneck -9.58987 -3.95459 -14.8578
upperneck -13.041 -2.37075 16.8766
head -1.72677 -0.626857 7.72385
rclavicle -2.3059e-014 -1.59028e-015
rhumerus -67.9983 7.42359 -96.0145
rradius 98.732
rwrist -18.0055
rhand -38.2644 51.3349
rfingers 7.12502
rthumb -11.2943 21.659
lclavicle -2.3059e-014 -1.59028e-015
lhumerus -52.8707 -9.01795 102.071
lradius 77.2148
lwrist 25.4207
lhand -36.5514 33.4549
lfingers 7.12502
lthumb -9.64181 63.2142
rfemur -33.3562 -5.26153 16.7639
rtibia 35.6719
rfoot -2.5842 4.90412
rtoes -13.9617
lfemur 10.4575 12.826 -18.8062
ltibia 97.292
lfoot 5.32024 9.58112
ltoes -11.7514
54
root 9.50109 15.8868 -0.262112 101.032 81.7672 97.1925
lowerback 11.058 -2.24957 -7.24655
upperback 6.82997 -3.29434 0.886467
thorax 1.47635 -1.7722 5.30297
lowerneck -8.87391 -4.17106 -15.0389
upperneck -13.8833 -2.67062 16.6528
head -2.04468 -0.786548 7.69923
rclavicle 3.61788e-014 -3.18055e-015
rhumerus -64.6004 7.31084 -96.6722
rradius 98.4219
rwrist -18.3455
rhand -38.3772 51.46
rfingers 7.12502
rthumb -11.4031 21.7901
lclavicle 3.61788e-014 -3.18055e-015
lhumerus -54.2085 -9.70892 102.618
lradius 72.5304
lwrist 24.2715
lhand -37.1408 34.6766
lfingers 7.12502
lthumb -10.2105 64.4088
rfemur -31.7239 -5.18959 17.5755
rtibia 38.3048
rfoot -9.22717 7.09169
rtoes -3.6497
lfemur 7.87193 14.1489 -16.4101
ltibia 102.799
lfoot 5.20117 8.22559
ltoes -9.92303
55
root 10.1304 15.8207 -0.263541 101.445 82.3815 97.7676
lowerback 11.1856 -1.7497 -6.56302
upperback 6.99201 -2.56595 1.23668
thorax 1.44882 -1.39228 5.22933
lowerneck -8.15519 -4.49792 -14.7568
upperneck -15.1028 -3.15259 15.9548
head -2.47449 -1.03609 7.44602
rclavicle 4.37326e-014 -5.56597e-015
rhumerus -60.5326 7.47409 -97.2718
rradius 98.259
rwrist -19.0651
rhand -38.1387 51.3968
rfingers 7.12502
rthumb -11.173 21.7143
lclavicle 4.37326e-014 -5.56597e-015
lhumerus -55.1394 -10.7678 103.217
lradius 68.0853
lwrist 22.7305
lhand -37.5838 35.9478
lfingers 7.12502
lthumb -10.6378 65.6585
rfemur -30.2739 -4.10846 18.2975
rtibia 40.9371
rfoot -11.948 2.74294
rtoes -7.91661
lfemur 4.59195 15.3319 -14.0167
ltibia 108.271
lfoot 5.49374 6.55209
ltoes -9.07313
56
root 10.7403 15.7442 -0.253078 101.862 83.039 98.368
lowerback 11.6658 -1.26054 -5.69361
upperback 7.1036 -1.85256 1.34402
thorax 1.1685 -0.996255 4.80118
lowerneck -7.9449 -4.81562 -14.2701
upperneck -15.8708 -3.57983 15.55
head -2.69481 -1.25281 7.24071
rclavicle 6.36111e-015 -1.90833e-014
rhumerus -56.3251 7.68489 -98.2066
rradius 98.4499
rwrist -19.9062
rhand -38.0276 50.4194
rfingers 7.12502
rthumb -11.0658 20.7311
lclavicle 6.36111e-015 -1.90833e-014
lhumerus -56.2698 -12.1165 103.454
lradius 64.104
lwrist 21.1106
lhand -36.8087 37.8239
lfingers 7.12502
lthumb -9.8901 67.5716
rfemur -28.7022 -2.42041 19.1025
rtibia 43.1519
rfoot -13.6509 -2.12126
rtoes -11.6079
lfemur 0.976539 16.5954 -11.5317
ltibia 113.493
lfoot 5.98536 4.40903
ltoes -9.89733
57
root 11.3358 15.6541 -0.237157 103.235 84.3271 99.8063
lowerback 12.1967 -0.797203 -4.36842
upperback 7.07898 -1.12953 1.67269
thorax 0.727713 -0.583646 4.33521
lowerneck -7.49451 -5.12855 -14.0246
upperneck -16.9094 -3.95866 15.4477
head -3.0258 -1.44586 7.19496
rclavicle 3.97569e-015 -7.15625e-015
rhumerus -52.2677 8.22637 -98.8695
rradius 98.8397
rwrist -21.0328
rhand -38.3142 48.8351
rfingers 7.12502
rthumb -11.3423 19.1619
lclavicle 3.97569e-015 -7.15625e-015
lhumerus -57.8633 -13.1412 103.794
lradius 60.838
lwrist 19.4844
lhand -35.3425 39.6843
lfingers 7.12502
lthumb -8.47534 69.4943
rfemur -26.7051 -0.593744 20.6708
rtibia 44.358
rfoot -15.6242 -3.76381
rtoes -9.64369
lfemur -2.86419 17.9663 -8.17043
ltibia 118.381
lfoot 6.17308 1.30872
ltoes -10.5206
58
root 11.9387 15.5999 -0.227739 100.771 86.6846 97.5107
lowerback 12.6664 -0.255941 -2.34585
upperback 7.22293 -0.190333 2.41911
thorax 0.502722 -0.0562234 3.86934
lowerneck -7.43635 -5.46427 -13.9315
upperneck -17.7734 -4.32323 15.3429
head -3.24416 -1.60571 7.16472
rclavicle -3.97569e-015 -3.57812e-014
rhumerus -47.7413 9.42794 -98.9589
rradius 99.31
rwrist -22.4908
rhand -37.8415 49.4108
rfingers 7.12502
rthumb -10.8864 19.713
lclavicle -3.97569e-015 -3.57812e-014
lhumerus -59.5895 -13.8119 104.412
lradius 58.5671
lwrist 18.6486
lhand -34.3712 40.6819
lfingers 7.12502
lthumb -7.53784 70.5276
rfemur -23.8621 0.62153 23.3259
rtibia 44.4889
rfoot -17.276 -5.44305
rtoes -13.6682
lfemur -5.92719 19.7594 -3.40274
ltibia 122.26
lfoot 5.89954 -2.74698
ltoes -9.7827
59
root 12.5682 15.6187 -0.244799 141.076 88.8758 138.069
lowerback 13.0249 -0.18152 0.654844
upperback 7.39749 0.270952 2.97354
thorax 0.448864 0.267668 2.69565
lowerneck -7.31455 -5.84479 -13.7506
upperneck -18.5124 -4.73326 15.5998
head -3.41264 -1.81251 7.23517
rclavicle -1.31198e-014 -2.54444e-014
rhumerus -43.0225 10.3778 -98.9505
rradius 99.7844
rwrist -22.6218
rhand -37.299 49.1934
rfingers 7.12502
rthumb -10.3631 19.4687
lclavicle -1.31198e-014 -2.54444e-014
lhumerus -61.741 -14.7865 104.878
lradius 57.3601
lwrist 18.9074
lhand -33.8269 41.3002
lfingers 7.12502
lthumb -7.0125 71.1641
rfemur -20.3261 -0.252483 26.0137
rtibia 43.6508
rfoot -18.7049 -5.60687
rtoes -15.0849
lfemur -9.44798 20.5477 0.357247
ltibia 124.974
lfoot 5.37827 -6.19777
ltoes -10.8225
60
root 13.1805 15.6376 -0.239123 129.18 90.9814 125.722
lowerback 12.796 0.61304 1.91317
upperback 7.38319 1.4456 3.23184
thorax 0.529579 0.886342 2.11318
lowerneck -6.95709 -6.29271 -13.623
upperneck -19.4566 -5.21768 16.0562
head -3.65651 -2.07046 7.39491
rclavicle 1.19271e-015 2.62396e-014
rhumerus -38.8215 11.0619 -98.8694
rradius 100.452
rwrist -21.8151
rhand -35.6359 51.6578
rfingers 7.12502
rthumb -8.75848 21.8596
lclavicle 1.19271e-015 2.62396e-014
lhumerus -64.2362 -15.7465 105.424
lradius 57.0545
lwrist 19.9737
lhand -33.6712 41.8118
lfingers 7.12502
lthumb -6.86218 71.6805
rfemur -17.6773 0.120967 27.4528
rtibia 42.3695
rfoot -19.6429 -3.63875
rtoes -11.3574
lfemur -13.1838 23.4281 2.48012
ltibia 126.956
lfoot 4.27309 -9.37398
ltoes -14.6798
61
root 13.8052 15.6634 -0.252571 193.698 89.2297 190.504
lowerback 12.9438 0.541931 1.68482
upperback 7.48632 1.33836 3.01272
thorax 0.561015 0.834948 2.02551
lowerneck -6.78622 -6.54728 -13.6949
upperneck -19.76 -5.47284 16.5775
head -3.7019 -2.21146 7.58858
rclavicle 7.95139e-015 9.54166e-015
rhumerus -34.968 11.3821 -98.6398
rradius 101.626
rwrist -18.892
rhand -35.2826 53.0106
rfingers 7.12502
rthumb -8.41746 23.1984
lclavicle 7.95139e-015 9.54166e-015
lhumerus -66.9432 -16.9054 106.298
lradius 57.5929
lwrist 21.8954
lhand -34.2333 42.0258
lfingers 7.12502
lthumb -7.40477 71.8762
rfemur -14.0771 -2.21682 26.5123
rtibia 40.9209
rfoot -20.4042 -2.86695
rtoes -13.5833
lfemur -19.014 22.1283 -1.78626
ltibia 128.159
lfoot 4.21332 -9.17226
ltoes -15.7574
62
root 14.4274 15.6827 -0.250251 157.012 88.8675 153.735
lowerback 12.7276 1.00741 1.04445
upperback 7.48393 1.8646 2.76883
thorax 0.649987 1.07919 2.07166
lowerneck -6.13776 -7.01947 -13.6573
upperneck -20.6523 -5.99058 17.3159
head -3.94801 -2.51332 7.86986
rclavicle 1.98785e-015 -3.18055e-015
rhumerus -31.4152 11.271 -98.2458
rradius 103.196
rwrist -15.6283
rhand -34.9667 50.5597
rfingers 7.12502
rthumb -8.11265 20.7354
lclavicle 1.98785e-015 -3.18055e-015
lhumerus -69.8328 -18.2758 107.298
lradius 58.7635
lwrist 24.0755
lhand -35.0039 41.952
lfingers 7.12502
lthumb -8.14856 71.7749
rfemur -10.8466 -3.35141 25.5891
rtibia 39.5349
rfoot -20.2805 -3.25792
rtoes -20.9235
lfemur -24.4173 21.4627 -5.97711
ltibia 128.611
lfoot 4.41815 -8.16165
ltoes -14.9706
63
root 15.0485 15.6992 -0.259041 171.01 88.6676 167.667
lowerback 12.6694 1.45431 1.34815
upperback 7.26728 2.47491 2.75362
thorax 0.448536 1.38772 1.80763
lowerneck -5.16731 -7.40358 -13.6796
upperneck -21.3252 -6.48333 17.926
head -4.18919 -2.8204 8.12786
rclavicle 2.78299e-015 1.82882e-014
rhumerus -28.6401 10.8363 -97.5746
rradius 105.02
rwrist -13.2704
rhand -34.6153 52.1758
rfingers 7.12502
rthumb -7.77346 22.3387
lclavicle 2.78299e-015 1.82882e-014
lhumerus -73.0653 -19.4303 108.318
lradius 60.4863
lwrist 25.5155
lhand -35.3001 41.7756
lfingers 7.12502
lthumb -8.43442 71.5872
rfemur -7.57671 -3.98025 25.5442
rtibia 38.0614
rfoot -19.5586 -3.11487
rtoes -25.5202
lfemur -29.5503 20.6073 -8.87916
ltibia 128.553
lfoot 4.66026 -6.91595
ltoes -14.3077
